HIERARCHY
ROOT joint_Root
{
	OFFSET 0.0 0.0 0.0
	CHANNELS 6 Xposition Yposition Zposition Zrotation Xrotation Yrotation 
	JOINT Hips
	{
		OFFSET 4.5925 91.4895 -427.239
		CHANNELS 6 Xposition Yposition Zposition Zrotation Xrotation Yrotation 
		JOINT Spine
		{
			OFFSET 15.7357 0.0 0.0
			CHANNELS 6 Xposition Yposition Zposition Zrotation Xrotation Yrotation 
			JOINT Chest
			{
				OFFSET 8.98455 -0.406207 0.0
				CHANNELS 6 Xposition Yposition Zposition Zrotation Xrotation Yrotation 
				JOINT Neck
				{
					OFFSET 16.3773 0.0 0.0
					CHANNELS 6 Xposition Yposition Zposition Zrotation Xrotation Yrotation 
					JOINT Head
					{
						OFFSET 6.45672 0.0 0.0
						CHANNELS 6 Xposition Yposition Zposition Zrotation Xrotation Yrotation 
						End Site
						{
							OFFSET 0.0 0.0 0.0
						}
					}
				}
				JOINT Shoulder_L
				{
					OFFSET 12.9942 -0.242716 4.98039
					CHANNELS 6 Xposition Yposition Zposition Zrotation Xrotation Yrotation 
					JOINT UpperArm_L
					{
						OFFSET 5.34809 0.0 0.0
						CHANNELS 6 Xposition Yposition Zposition Zrotation Xrotation Yrotation 
						JOINT LowerArm_L
						{
							OFFSET 24.3286 1.87007e-05 0.0
							CHANNELS 6 Xposition Yposition Zposition Zrotation Xrotation Yrotation 
							JOINT Hand_L
							{
								OFFSET 22.2916 0.0 0.0
								CHANNELS 6 Xposition Yposition Zposition Zrotation Xrotation Yrotation 
								End Site
								{
									OFFSET 0.0 0.0 0.0
								}
							}
						}
					}
				}
				JOINT Shoulder_R
				{
					OFFSET 12.9945 -0.242716 -4.98039
					CHANNELS 6 Xposition Yposition Zposition Zrotation Xrotation Yrotation 
					JOINT UpperArm_R
					{
						OFFSET -5.34813 0.0 0.0
						CHANNELS 6 Xposition Yposition Zposition Zrotation Xrotation Yrotation 
						JOINT LowerArm_R
						{
							OFFSET -24.3289 0.000322201 0.0
							CHANNELS 6 Xposition Yposition Zposition Zrotation Xrotation Yrotation 
							JOINT Hand_R
							{
								OFFSET -22.2915 -0.000108084 0.0
								CHANNELS 6 Xposition Yposition Zposition Zrotation Xrotation Yrotation 
								End Site
								{
									OFFSET 0.0 0.0 0.0
								}
							}
						}
					}
				}
			}
		}
		JOINT UpperLeg_L
		{
			OFFSET -2.19248 -6.46944 0.0
			CHANNELS 6 Xposition Yposition Zposition Zrotation Xrotation Yrotation 
			JOINT LowerLeg_L
			{
				OFFSET 39.0811 0.0 -1.23785e-05
				CHANNELS 6 Xposition Yposition Zposition Zrotation Xrotation Yrotation 
				JOINT Foot_L
				{
					OFFSET 40.9854 0.0 -1.26872e-05
					CHANNELS 6 Xposition Yposition Zposition Zrotation Xrotation Yrotation 
					JOINT Toes_L
					{
						OFFSET 11.7543 0.0 0.0
						CHANNELS 6 Xposition Yposition Zposition Zrotation Xrotation Yrotation 
						End Site
						{
							OFFSET 0.0 0.0 0.0
						}
					}
				}
			}
		}
		JOINT UpperLeg_R
		{
			OFFSET -2.19251 6.46944 0.0
			CHANNELS 6 Xposition Yposition Zposition Zrotation Xrotation Yrotation 
			JOINT LowerLeg_R
			{
				OFFSET -39.0811 -0.00228153 -0.0401928
				CHANNELS 6 Xposition Yposition Zposition Zrotation Xrotation Yrotation 
				JOINT Foot_R
				{
					OFFSET -40.9854 0.0 0.0
					CHANNELS 6 Xposition Yposition Zposition Zrotation Xrotation Yrotation 
					JOINT Toes_R
					{
						OFFSET -11.7543 0.0 0.0
						CHANNELS 6 Xposition Yposition Zposition Zrotation Xrotation Yrotation 
						End Site
						{
							OFFSET 0.0 0.0 0.0
						}
					}
				}
			}
		}
	}
}
MOTION
Frames:	6
Frame Time:	0.0333333
0.000000 0.000000 0.000000 0.000000 0.000000 -0.000000 -0.664681 90.758400 2.627220 87.853500 -3.489340 5.719970 15.735700 0.000005 -0.000001 82.572700 86.841400 -82.864300 8.984550 -0.406207 -0.000000 -1.503900 -0.792844 -0.593452 16.377300 -0.000001 -0.000001 4.310890 -2.315630 1.368740 6.456720 -0.000001 -0.000000 0.634725 -1.495720 1.399200 12.994200 -0.242716 4.980390 -85.138300 -10.403700 -64.779500 5.348090 -0.000007 -0.000001 -28.638500 -51.529400 -48.912000 24.328600 0.000019 0.000005 3.181160 5.360110 -30.749300 22.291600 -0.000001 0.000005 16.453100 4.876710 9.836410 12.994500 -0.242716 -4.980390 92.410300 -7.269530 -71.601400 -5.348130 -0.000001 -0.000004 -42.351700 -54.975000 -57.939400 -24.328900 0.000322 -0.000009 -13.368400 -22.342400 -32.018500 -22.291500 -0.000108 -0.000004 21.193600 4.965270 8.078730 -2.192480 -6.469440 -0.000000 -174.035000 -10.098200 -2.572270 39.081100 -0.000007 -0.000012 -0.235527 0.396783 30.693400 40.985400 -0.000006 -0.000013 -0.905626 2.326390 -72.149500 11.754300 -0.000000 0.000003 -0.000256 -0.002279 -16.662900 -2.192510 6.469440 -0.000001 177.835000 17.384500 178.370000 -39.081100 -0.002282 -0.040193 0.015431 -0.021753 29.140600 -40.985400 0.000008 0.000006 6.758700 11.695700 -72.363500 -11.754300 -0.000006 -0.000006 -0.001085 -0.016605 -17.248400
0.000000 0.000000 0.000000 0.000000 0.000000 -0.000000 -0.529155 90.842600 2.396460 87.822900 -3.520630 5.189980 15.735700 0.000005 -0.000001 81.322400 86.637300 -81.447600 8.984550 -0.406207 -0.000000 -1.118670 -1.004790 -0.260125 16.377300 -0.000001 -0.000001 3.225010 -1.811640 1.570190 6.456720 -0.000001 -0.000000 -0.594140 -0.807338 1.167470 12.994200 -0.242716 4.980390 -85.921100 -9.221180 -66.010800 5.348090 -0.000007 -0.000001 -24.957900 -49.765600 -33.409100 24.328600 0.000019 0.000005 6.802460 10.533400 -33.122800 22.291600 -0.000001 0.000005 18.215900 4.823230 10.875400 12.994500 -0.242716 -4.980390 91.784500 -5.395440 -71.666500 -5.348130 -0.000001 -0.000004 -42.644200 -56.624800 -51.433300 -24.328900 0.000322 -0.000009 -16.273500 -29.341900 -30.782100 -22.291500 -0.000108 -0.000004 19.500300 4.809400 11.140800 -2.192480 -6.469440 -0.000000 -174.217000 -10.200700 -3.171020 39.081100 -0.000007 -0.000012 -0.229970 0.391213 30.449100 40.985400 -0.000006 -0.000013 -0.808598 2.280320 -71.857700 11.754300 -0.000000 0.000003 -0.000237 -0.002136 -16.657700 -2.192510 6.469440 -0.000001 177.974000 17.490800 177.837000 -39.081100 -0.002282 -0.040193 0.014486 -0.020397 28.730300 -40.985400 0.000008 0.000006 6.628110 11.878800 -72.038100 -11.754300 -0.000006 -0.000006 -0.001269 -0.019158 -17.352200
0.000000 0.000000 0.000000 0.000000 0.000000 -0.000000 -0.393634 90.846000 2.279040 87.696400 -3.547690 4.861190 15.735700 0.000005 -0.000001 80.451000 86.470600 -80.397600 8.984550 -0.406207 -0.000000 -0.804560 -1.174710 0.098476 16.377300 -0.000001 -0.000001 2.651070 -1.459420 2.095810 6.456720 -0.000001 -0.000000 -1.649710 -0.281541 1.171960 12.994200 -0.242716 4.980390 -86.562500 -7.681470 -65.801300 5.348090 -0.000007 -0.000001 -23.534300 -49.345400 -25.857200 24.328600 0.000019 0.000005 6.938310 10.789400 -33.026800 22.291600 -0.000001 0.000005 18.072300 4.841980 10.516100 12.994500 -0.242716 -4.980390 91.473500 -4.273080 -70.953300 -5.348130 -0.000001 -0.000004 -42.789500 -57.921600 -47.786800 -24.328900 0.000322 -0.000009 -14.394600 -27.291900 -29.234800 -22.291500 -0.000108 -0.000004 19.522800 4.788530 11.534600 -2.192480 -6.469440 -0.000000 -174.263000 -10.206900 -3.681260 39.081100 -0.000007 -0.000012 -0.228285 0.385779 30.615400 40.985400 -0.000006 -0.000013 -0.716756 2.216760 -71.858500 11.754300 -0.000000 0.000003 -0.000207 -0.001909 -16.649500 -2.192510 6.469440 -0.000001 178.009000 17.834200 177.548000 -39.081100 -0.002282 -0.040193 -0.006870 0.018725 28.519000 -40.985400 0.000008 0.000006 6.273970 12.336400 -71.926000 -11.754300 -0.000006 -0.000006 -0.001327 -0.019949 -17.384300
0.000000 0.000000 0.000000 0.000000 0.000000 -0.000000 -0.286116 90.832300 2.312310 87.527800 -3.518600 4.767530 15.735700 0.000005 -0.000001 80.364500 86.437800 -80.139900 8.984550 -0.406207 -0.000000 -0.739746 -1.208890 0.441299 16.377300 -0.000001 -0.000001 2.950810 -1.431400 2.310630 6.456720 -0.000001 -0.000000 -1.754580 -0.250651 1.091970 12.994200 -0.242716 4.980390 -86.510800 -7.613140 -65.286300 5.348090 -0.000007 -0.000001 -25.617600 -51.445900 -26.548600 24.328600 0.000019 0.000005 6.791590 11.512200 -30.825900 22.291600 -0.000001 0.000005 17.370100 4.830630 10.734400 12.994500 -0.242716 -4.980390 91.576300 -4.390350 -70.227500 -5.348130 -0.000001 -0.000004 -44.384900 -59.367600 -49.501500 -24.328900 0.000322 -0.000009 -12.603800 -24.829500 -28.032600 -22.291500 -0.000108 -0.000004 22.294300 4.791610 11.476400 -2.192480 -6.469440 -0.000000 -174.244000 -9.912880 -3.844670 39.081100 -0.000007 -0.000012 -0.228502 0.383524 30.786700 40.985400 -0.000006 -0.000013 -0.708722 1.944130 -71.981900 11.754300 -0.000000 0.000003 -0.000230 -0.002084 -16.655900 -2.192510 6.469440 -0.000001 178.032000 17.973000 177.551000 -39.081100 -0.002282 -0.040193 -0.032549 0.066327 28.393700 -40.985400 0.000008 0.000006 5.739860 12.603300 -71.749500 -11.754300 -0.000006 -0.000006 -0.001429 -0.021325 -17.440300
0.000000 0.000000 0.000000 0.000000 0.000000 -0.000000 -0.169925 90.829200 2.432510 87.498800 -3.440660 4.869140 15.735700 0.000005 -0.000001 80.701000 86.539300 -80.425400 8.984550 -0.406207 -0.000000 -0.932864 -1.139080 0.541860 16.377300 -0.000001 -0.000001 3.942840 -1.735150 2.378290 6.456720 -0.000001 -0.000000 -1.237740 -0.559994 0.861988 12.994200 -0.242716 4.980390 -86.084600 -8.386570 -64.861400 5.348090 -0.000007 -0.000001 -29.792800 -55.123700 -32.968100 24.328600 0.000019 0.000005 6.235060 9.993920 -32.200900 22.291600 -0.000001 0.000005 18.900500 4.856950 10.231300 12.994500 -0.242716 -4.980390 91.992300 -5.372670 -69.620200 -5.348130 -0.000001 -0.000004 -50.046500 -60.963000 -57.524700 -24.328900 0.000322 -0.000009 -13.317600 -23.240900 -30.957600 -22.291500 -0.000108 -0.000004 23.759200 4.851630 10.330500 -2.192480 -6.469440 -0.000000 -174.311000 -9.677180 -3.662100 39.081100 -0.000007 -0.000012 -0.229799 0.386062 30.763200 40.985400 -0.000006 -0.000013 -0.675618 1.772810 -72.064900 11.754300 -0.000000 0.000003 -0.000249 -0.002225 -16.660900 -2.192510 6.469440 -0.000001 177.971000 17.860000 177.780000 -39.081100 -0.002282 -0.040193 -0.020092 0.043393 28.333700 -40.985400 0.000008 0.000006 5.848500 12.408400 -71.835100 -11.754300 -0.000006 -0.000006 -0.001349 -0.020241 -17.396200
0.000000 0.000000 0.000000 0.000000 0.000000 -0.000000 -0.065866 90.806600 2.618180 87.676500 -3.490710 5.203790 15.735700 0.000005 -0.000001 81.420700 86.700100 -81.195500 8.984550 -0.406207 -0.000000 -1.238110 -1.002020 0.439412 16.377300 -0.000001 -0.000001 5.100790 -1.910170 2.428500 6.456720 -0.000001 -0.000000 -0.574347 -0.898014 0.457963 12.994200 -0.242716 4.980390 -85.518500 -9.247390 -64.000800 5.348090 -0.000007 -0.000001 -34.230100 -57.230900 -43.483900 24.328600 0.000019 0.000005 6.152150 7.952660 -37.923200 22.291600 -0.000001 0.000005 22.351800 4.925840 8.869920 12.994500 -0.242716 -4.980390 92.544400 -6.724390 -69.217900 -5.348130 -0.000001 -0.000004 -54.667700 -60.902200 -67.217300 -24.328900 0.000322 -0.000009 -14.822500 -20.566700 -36.993200 -22.291500 -0.000108 -0.000004 24.322500 5.002400 7.276840 -2.192480 -6.469440 -0.000000 -174.405000 -10.099600 -3.114700 39.081100 -0.000007 -0.000012 -0.230936 0.389598 30.657900 40.985400 -0.000006 -0.000013 -0.510460 2.128960 -72.164800 11.754300 -0.000000 0.000003 -0.000251 -0.002244 -16.661600 -2.192510 6.469440 -0.000001 177.681000 17.563100 178.148000 -39.081100 -0.002282 -0.040193 0.004294 -0.001820 28.515300 -40.985400 0.000008 0.000006 6.157120 12.076400 -72.117600 -11.754300 -0.000006 -0.000006 -0.001368 -0.020507 -17.407000
